<svg xmlns="http://www.w3.org/2000/svg" width="786" height="571.694" viewBox="0 0 786 571.694">
  <g id="Group_3" data-name="Group 3" transform="translate(-158 -101.867)">
    <g id="Left_Div" data-name="Left Div" transform="translate(218 105.356)">
      <path id="Path_10" data-name="Path 10" d="M2690.85-944.374s76.736-67.037,243.49-82.966,244.228,94.249,318.012,254.208-186.676,278.1-186.676,278.1-121.745,44.47-179.3,26.549-170.443-45.134-190.365-209.738-53.125-140.71-47.96-196.464S2690.85-944.374,2690.85-944.374Z" transform="translate(-2647.513 1028.869)" fill="#fff" stroke="#fff" stroke-width="7"/>
      <circle id="Ellipse_1" data-name="Ellipse 1" cx="18" cy="18" r="18" transform="translate(514 28.644)" fill="#fff"/>
      <circle id="Ellipse_3" data-name="Ellipse 3" cx="18" cy="18" r="18" transform="translate(514 518.644)" fill="#fff"/>
      <circle id="Ellipse_4" data-name="Ellipse 4" cx="36" cy="36" r="36" transform="translate(532 426.644)" fill="#fff"/>
      <circle id="Ellipse_2" data-name="Ellipse 2" cx="38" cy="38" r="38" transform="translate(580 119.644)" fill="#fff"/>
    </g>
    <g id="Logo" transform="translate(158 209)">
      <g id="programmer_1_" data-name="programmer (1)" transform="translate(153.82 71.335)">
        <path id="Path_1" data-name="Path 1" d="M33.225,43.1A25.516,25.516,0,0,1,58.746,17.58h32.8C91.546,9.528,82.135,3,66.031,3H36.87A21.87,21.87,0,0,0,15,24.87v40.1L33.225,54.031Z" transform="translate(28.741 0.645)" fill="#4d2817"/>
        <path id="Path_2" data-name="Path 2" d="M29.87,53.5V20H22.58A14.581,14.581,0,0,0,8,34.578V49.161a14.581,14.581,0,0,0,14.578,14.58h9.876A21.832,21.832,0,0,1,29.87,53.5Z" transform="translate(10.225 45.611)" fill="#606060"/>
        <path id="Path_3" data-name="Path 3" d="M54.225,49.161V34.58A14.581,14.581,0,0,0,39.647,20H36V49.161Z" transform="translate(84.287 45.611)" fill="#606060"/>
        <path id="Path_4" data-name="Path 4" d="M60.1,17.935V7H45.515A25.515,25.515,0,0,0,20,32.515V43.451H34.58A25.516,25.516,0,0,0,60.1,17.93Z" transform="translate(41.966 11.225)" fill="#4d2817"/>
        <path id="Path_5" data-name="Path 5" d="M49.515,17.935A25.515,25.515,0,0,1,24,43.451H45.87A25.515,25.515,0,0,0,71.386,17.934V7H49.515Z" transform="translate(52.546 11.225)" fill="#66351e"/>
        <path id="Path_6" data-name="Path 6" d="M30,43.451H51.87a25.376,25.376,0,0,0,10.935-2.489h0a25.492,25.492,0,0,0,14.58-23.026V7H55.515V17.935A25.515,25.515,0,0,1,30,43.451Z" transform="translate(68.417 11.225)" fill="#4d2817"/>
        <path id="Path_7" data-name="Path 7" d="M40.161,3H32.87A21.87,21.87,0,0,0,11,24.87v40.1H25.58V24.87A21.87,21.87,0,0,1,47.451,3Z" transform="translate(18.161 0.645)" fill="#66351e"/>
        <path id="Path_8" data-name="Path 8" d="M18.935,52.806V38.225A14.548,14.548,0,0,1,29.87,24.159V20H22.58A14.581,14.581,0,0,0,8,34.578V49.161a14.581,14.581,0,0,0,14.578,14.58h1.387a14.478,14.478,0,0,1-5.03-10.935Z" transform="translate(10.225 45.611)" fill="#878787"/>
        <path id="Path_9" data-name="Path 9" d="M39.645,20H36v7.29A14.581,14.581,0,0,1,50.58,41.869v7.292h3.645V34.58A14.581,14.581,0,0,0,39.647,20Z" transform="translate(84.287 45.611)" fill="#878787"/>
        <path id="Path_10-2" data-name="Path 10" d="M138.867,52.226c10.145,4.108,18.225,8.79,18.225,13.29v51.031H4V65.515C4,53.436,62.321,40,62.321,40h36.45Z" transform="translate(-0.355 98.513)" fill="#9406ff"/>
        <path id="Path_11" data-name="Path 11" d="M138.867,63.161l-40.1-12.226H62.321S10.853,62.8,4.623,74.246L4,65.515C4,53.436,62.321,40,62.321,40h36.45l40.1,12.226c10.145,4.108,18.225,8.79,18.225,13.29l-.63,8.817C154.457,70.5,147.43,66.627,138.867,63.161Z" transform="translate(-0.355 98.513)" fill="#6e03be"/>
        <path id="Path_12" data-name="Path 12" d="M32.225,17H94.191V61.433a21.866,21.866,0,0,1-7.87,16.8L69.179,87.626A18.443,18.443,0,0,1,60.3,89.9H47.888A18.461,18.461,0,0,1,39,87.622L21.866,78.233A21.88,21.88,0,0,1,14,61.433V31.58Z" transform="translate(26.096 37.676)" fill="#fce0b9"/>
        <path id="Path_13" data-name="Path 13" d="M23.143,37.622A18.443,18.443,0,0,0,32.022,39.9H44.434a18.461,18.461,0,0,0,8.887-2.278L56.452,35.9V58.12A25.777,25.777,0,0,1,20,58.12V35.9Z" transform="translate(41.966 87.681)" fill="#fce0b9"/>
        <path id="Path_14" data-name="Path 14" d="M20,35.9l3.142,1.721A18.443,18.443,0,0,0,32.021,39.9H44.433a18.461,18.461,0,0,0,8.887-2.278L56.451,35.9V58.122c-.576.576-1.177,1.108-1.79,1.618L20,37.294Z" transform="translate(41.966 87.681)" fill="#f5cba1"/>
        <path id="Path_15" data-name="Path 15" d="M29.645,25A3.646,3.646,0,0,0,26,28.645v40.1h2.559a18.461,18.461,0,0,0,8.887-2.278l17.135-9.389a21.87,21.87,0,0,0,7.87-16.8V25Z" transform="translate(57.837 58.837)" fill="#f5cba1"/>
        <g id="Group_1" data-name="Group 1" transform="translate(94.772 94.772)">
          <path id="Path_16" data-name="Path 16" d="M29,28v80.191H80.031V46.225a7.29,7.29,0,1,1,14.58,0v61.966h51.031V28Z" transform="translate(-29 -28)" fill="#383838"/>
          <path id="Path_17" data-name="Path 17" d="M50.29,31A7.288,7.288,0,0,0,43,38.29v87.482H57.58V38.29A7.288,7.288,0,0,0,50.29,31Z" transform="translate(8.031 -20.065)" fill="#383838"/>
          <path id="Path_18" data-name="Path 18" d="M36,57V71.58h65.611V57Z" transform="translate(-10.485 48.707)" fill="#383838"/>
        </g>
        <path id="Path_19" data-name="Path 19" d="M34.58,33.515H20v7.29H34.58A25.516,25.516,0,0,0,60.1,15.285V8A25.515,25.515,0,0,1,34.58,33.515Z" transform="translate(41.966 13.87)" fill="#3d2012"/>
        <path id="Path_20" data-name="Path 20" d="M45.87,33.515H41.839A25.413,25.413,0,0,1,24,40.806H45.87A25.515,25.515,0,0,0,71.386,15.289V8A25.515,25.515,0,0,1,45.87,33.515Z" transform="translate(52.546 13.87)" fill="#4d2817"/>
        <path id="Path_21" data-name="Path 21" d="M62.806,31.026A25.376,25.376,0,0,1,51.87,33.515H47.839A25.413,25.413,0,0,1,30,40.806H51.87A25.59,25.59,0,0,0,77.386,15.29V8a25.487,25.487,0,0,1-14.58,23.026Z" transform="translate(68.417 13.87)" fill="#3d2012"/>
        <path id="Path_22" data-name="Path 22" d="M10,62.29,46.451,55h21.87A10.935,10.935,0,0,1,79.256,65.935V76.87H10Z" transform="translate(15.515 138.189)" fill="#fce0b9"/>
        <path id="Path_23" data-name="Path 23" d="M41,36.974v71.217h7.29V46.225a7.29,7.29,0,1,1,14.58,0v61.966h7.29V36.974c0-4.959-6.528-8.974-14.58-8.974S41,32.015,41,36.974Z" transform="translate(97.513 66.772)" fill="#262626"/>
        <path id="Path_24" data-name="Path 24" d="M36,59h65.611v7.29H36Z" transform="translate(84.287 148.769)" fill="#262626"/>
        <path id="Path_25" data-name="Path 25" d="M24.629,35.008a6.379,6.379,0,1,1,6.379-6.379A6.379,6.379,0,0,1,24.629,35.008Zm0-7.29a.912.912,0,0,0-.911.911c0,1,1.823,1,1.823,0A.912.912,0,0,0,24.629,27.718Z" transform="translate(37.337 51.562)"/>
        <path id="Path_26" data-name="Path 26" d="M34.629,35.008a6.379,6.379,0,1,1,6.379-6.379A6.379,6.379,0,0,1,34.629,35.008Zm0-7.29a.912.912,0,0,0-.911.911c0,1,1.823,1,1.823,0A.912.912,0,0,0,34.629,27.718Z" transform="translate(63.787 51.562)"/>
        <path id="Path_27" data-name="Path 27" d="M214.414,93.126H145.158V82.191a18.14,18.14,0,0,0-7.29-14.485V56.377a29.155,29.155,0,0,0,14.58-25.217V20.225A3.646,3.646,0,0,0,148.8,16.58H126.42C124.286,8.856,115.2,2,97.772,2H54.031A25.515,25.515,0,0,0,28.515,27.517V65.486A18.252,18.252,0,0,0,17.58,82.191v14.58a18.26,18.26,0,0,0,14.58,17.855v31.368C16.844,151.364,3,158.337,3,166.028v51.031A3.646,3.646,0,0,0,6.645,220.7H188.9a3.646,3.646,0,0,0,3.645-3.645V202.478a3.646,3.646,0,0,0-3.645-3.645H167.03V180.608h47.386a3.646,3.646,0,0,0,3.645-3.645V96.772a3.646,3.646,0,0,0-3.644-3.645Zm-87.482,0V71.256a10.948,10.948,0,0,1,10.935,10.935V93.126Zm-58.321,38.43a22.136,22.136,0,0,0,8.377,1.666H89.4a21.885,21.885,0,0,0,4.731-.547v16.061a22.057,22.057,0,0,1-25.515-2.508Zm29.161-38.43a3.646,3.646,0,0,0-3.645,3.645v28.344a14.708,14.708,0,0,1-4.731.816H76.988a14.9,14.9,0,0,1-7.13-1.823L53.04,114.89a18.17,18.17,0,0,1-6.3-13.781V71.256a3.54,3.54,0,0,0,1.844-.572l.033.055L65.976,60.321h53.666V93.126ZM123.287,23.87v7.29a21.893,21.893,0,0,1-21.87,21.87H98.768A29.072,29.072,0,0,0,108.7,31.16V23.87Zm-21.87,7.29a21.893,21.893,0,0,1-21.87,21.87H68.611V45.74a21.893,21.893,0,0,1,21.87-21.87h10.935Zm29.161,33.174a18.208,18.208,0,0,0-3.645-.368v-3.9a28.624,28.624,0,0,0,3.645-.707Zm14.58-33.174a21.893,21.893,0,0,1-21.87,21.87H120.64a29.072,29.072,0,0,0,9.937-21.87V23.87h14.582ZM54.031,16.58a18.312,18.312,0,0,1,14.58-7.29H97.772c11.092,0,18.046,3.292,20.66,7.29H90.482A29.194,29.194,0,0,0,61.321,45.74v8.872L50.386,61.174V27.514a18.327,18.327,0,0,1,3.645-10.935ZM35.806,27.515A18.22,18.22,0,0,1,50.393,9.658,25.2,25.2,0,0,0,48.2,12.2a25.662,25.662,0,0,0-5.1,15.309V63.964H35.81ZM24.87,96.772V82.191A10.948,10.948,0,0,1,35.806,71.256h3.645v29.853a25.561,25.561,0,0,0,.9,6.6H35.806A10.948,10.948,0,0,1,24.87,96.771ZM39.451,115h4.141a25.575,25.575,0,0,0,5.04,5.712,3.36,3.36,0,0,0,.583.4l12.105,6.634v9.881c-6.04,1.44-13.883,3.466-21.87,5.96ZM10.29,166.028c0-2.77,8.836-7.429,21.87-12.16v44.164l-4.36.875,1.432,7.146,2.927-.587v7.945H10.29Zm83.836,47.386H39.451v-9.4l25.876-5.176H86.836a7.3,7.3,0,0,1,7.29,7.29Zm25.515-10.935v10.935H101.417v-7.29a14.6,14.6,0,0,0-14.58-14.58H64.966a3.37,3.37,0,0,0-.715.073l-24.8,4.957V151.356c6.706-2.191,14.147-4.323,21.87-6.222V147.8a3.636,3.636,0,0,0,1.068,2.577,29.071,29.071,0,0,0,31.738,6.433v20.15a3.646,3.646,0,0,0,3.645,3.645h47.386V198.83h-21.87a3.646,3.646,0,0,0-3.645,3.645Zm65.611,10.935h-58.32v-7.29h58.321Zm-32.806-14.58V115a3.645,3.645,0,0,1,7.29,0v83.837Zm58.321-25.515H167.028V115a10.935,10.935,0,0,0-21.87,0v58.321H101.417v-72.9H210.769Z" transform="translate(-3 -2)"/>
      </g>
      <text id="_" data-name="{" transform="translate(0 255)" fill="#383838" font-size="255" font-family="Monaco"><tspan x="0" y="0">{</tspan></text>
      <text id="_2" data-name="}    " transform="translate(632 256)" fill="#383838" font-size="255" font-family="Monaco"><tspan x="0" y="0">}</tspan></text>
      <text id="Anmol_Chaudhary" data-name="Anmol Chaudhary" transform="translate(390.156 155)" fill="#383838" font-size="77" font-family="Bison-Bold, Bison" font-weight="700"><tspan x="0" y="0">Anmol</tspan><tspan x="0" y="92">Chaudhary</tspan></text>
    </g>
  </g>
</svg>
