<svg xmlns="http://www.w3.org/2000/svg" width="1231" height="849.69" viewBox="0 0 1231 849.69">
  <g id="Developer_Illustration" data-name="Developer Illustration" transform="translate(-20.5 136.002)">
    <g id="Group_1" data-name="Group 1" transform="translate(-8 -8)">
      <g id="Group_2" data-name="Group 2" transform="translate(65 -80)">
        <path id="Path_4" data-name="Path 4" d="M236.3,193.326s95.132-53.908,133.185-91.961,22.2-84.033,22.2-84.033-6.342-58.665,91.961-58.665S658.054,6.233,707.205,79.167s131.6-9.513,131.6-9.513S930.766,33.187,954.549,141s-72.935,136.356-22.2,234.659S1089.32,589.71,1089.32,589.71s55.494,98.3-25.369,156.968S884.785,799,884.785,799s-185.508-58.665-280.64-52.323S379,799,379,799,198.248,824.37,250.571,661.059,95.188,432.742,95.188,432.742s-79.277-55.494,26.954-163.31S236.3,193.326,236.3,193.326Z" transform="translate(7.108 1.261)" fill="#eff6fa"/>
        <path id="Path_5" data-name="Path 5" d="M53.144,556.935s-53.908,41.224,0,104.645,90.376-9.513,120.5-12.684,7.928-125.257,7.928-125.257L111.809,484Z" transform="translate(0 100.63)" fill="#eff6fa"/>
        <path id="Path_6" data-name="Path 6" d="M628.035-14.7s26.954-50.737,60.25-26.954S718.411-.433,718.411-.433,721.582,55.06,688.286,61.4s-74.52-9.513-74.52-9.513l-11.1-44.4Z" transform="translate(108.475 0)" fill="#eff6fa"/>
      </g>
      <path id="Path_1" data-name="Path 1" d="M207,701h822" transform="translate(-18 -137)" fill="none" stroke="#000" stroke-linecap="round" stroke-width="15"/>
      <path id="Path_2" data-name="Path 2" d="M207,701H307" transform="translate(-171 -137)" fill="none" stroke="#000" stroke-linecap="round" stroke-width="15"/>
      <path id="Path_3" data-name="Path 3" d="M207,701H407" transform="translate(845 -137)" fill="none" stroke="#000" stroke-linecap="round" stroke-width="15"/>
      <g id="programmer_1_" data-name="programmer (1)" transform="translate(267.884 62)">
        <path id="Path_1-2" data-name="Path 1" d="M57.169,95.767A59.035,59.035,0,0,1,116.2,36.733h75.9C192.1,18.1,170.326,3,133.07,3H65.6A50.6,50.6,0,0,0,15,53.6v92.767l42.169-25.3Z" transform="translate(89.198 7.43)" fill="#4d2817"/>
        <path id="Path_2-2" data-name="Path 2" d="M58.6,97.5V20H41.733A33.733,33.733,0,0,0,8,53.733V87.471A33.733,33.733,0,0,0,41.733,121.2H64.582A50.513,50.513,0,0,1,58.6,97.5Z" transform="translate(37.169 133.802)" fill="#606060"/>
        <path id="Path_3-2" data-name="Path 3" d="M78.169,87.465V53.733A33.733,33.733,0,0,0,44.436,20H36V87.465Z" transform="translate(245.302 133.802)" fill="#606060"/>
        <path id="Path_4-2" data-name="Path 4" d="M112.767,32.3V7H79.035A59.035,59.035,0,0,0,20,66.035v25.3H53.733A59.035,59.035,0,0,0,112.767,32.3Z" transform="translate(126.366 37.169)" fill="#4d2817"/>
        <path id="Path_5-2" data-name="Path 5" d="M83.03,32.3A59.034,59.034,0,0,1,24,91.331H74.594A59.035,59.035,0,0,0,133.629,32.3V7H83.03Z" transform="translate(156.104 37.169)" fill="#66351e"/>
        <path id="Path_6-2" data-name="Path 6" d="M30,91.331H80.6a58.729,58.729,0,0,0,25.3-5.757h0A58.98,58.98,0,0,0,139.634,32.3V7h-50.6V32.3A59.034,59.034,0,0,1,30.006,91.331Z" transform="translate(200.698 37.169)" fill="#4d2817"/>
        <path id="Path_7" data-name="Path 7" d="M78.465,3H61.6A50.6,50.6,0,0,0,11,53.6v92.767H44.733V53.6A50.6,50.6,0,0,1,95.331,3Z" transform="translate(59.465 7.43)" fill="#66351e"/>
        <path id="Path_8" data-name="Path 8" d="M33.3,95.9V62.169A33.647,33.647,0,0,1,58.6,29.623V20H41.733A33.733,33.733,0,0,0,8,53.733V87.471A33.733,33.733,0,0,0,41.733,121.2h3.206A33.494,33.494,0,0,1,33.315,95.9Z" transform="translate(37.169 133.802)" fill="#878787"/>
        <path id="Path_9" data-name="Path 9" d="M44.43,20H36V36.866A33.733,33.733,0,0,1,69.733,70.6V87.465h8.43V53.733A33.733,33.733,0,0,0,44.436,20Z" transform="translate(245.302 133.802)" fill="#878787"/>
        <path id="Path_10" data-name="Path 10" d="M316.035,68.288C339.508,77.795,358.2,88.623,358.2,99.035V217.1H4V99.035C4,71.084,138.93,40,138.93,40h84.337Z" transform="translate(7.43 282.465)" fill="#9406ff"/>
        <path id="Path_11" data-name="Path 11" d="M316.035,93.584,223.268,65.3H138.93S19.857,92.74,5.444,119.229L4,99.035C4,71.084,138.93,40,138.93,40h84.337l92.767,28.288C339.508,77.795,358.2,88.623,358.2,99.035l-1.456,20.4C352.092,110.579,335.844,101.6,316.035,93.584Z" transform="translate(7.43 282.465)" fill="#6e03be"/>
        <path id="Path_12" data-name="Path 12" d="M56.169,17H199.535V119.776a50.6,50.6,0,0,1-18.209,38.873L141.662,180.4a42.67,42.67,0,0,1-20.543,5.261H92.4a42.706,42.706,0,0,1-20.553-5.269L32.2,158.666A50.623,50.623,0,0,1,14,119.776V50.733Z" transform="translate(81.767 111.5)" fill="#fce0b9"/>
        <path id="Path_13" data-name="Path 13" d="M27.274,39.883a42.67,42.67,0,0,0,20.543,5.261H76.533a42.705,42.705,0,0,0,20.553-5.269l7.252-3.974V87.288a59.641,59.641,0,0,1-84.337,0V35.9Z" transform="translate(126.36 252.019)" fill="#fce0b9"/>
        <path id="Path_14" data-name="Path 14" d="M20,35.9l7.268,3.983a42.67,42.67,0,0,0,20.543,5.261H76.527a42.711,42.711,0,0,0,20.564-5.272l7.247-3.971V87.288c-1.334,1.334-2.722,2.563-4.142,3.744L20,39.124Z" transform="translate(126.366 252.019)" fill="#f5cba1"/>
        <path id="Path_15" data-name="Path 15" d="M34.43,25A8.436,8.436,0,0,0,26,33.43V126.2h5.922a42.706,42.706,0,0,0,20.553-5.269L92.125,99.2a50.6,50.6,0,0,0,18.206-38.871V25Z" transform="translate(170.965 170.965)" fill="#f5cba1"/>
        <g id="Group_1-2" data-name="Group 1" transform="translate(222.268 221.268)">
          <path id="Path_16" data-name="Path 16" d="M29,28V213.535H147.07V70.169a16.866,16.866,0,0,1,33.733,0V213.535h118.07V28Z" transform="translate(-29 -28)" fill="#383838"/>
          <path id="Path_17" data-name="Path 17" d="M59.866,31A16.86,16.86,0,0,0,43,47.866v202.4H76.733V47.866A16.86,16.86,0,0,0,59.866,31Z" transform="translate(75.064 -5.698)" fill="#383838"/>
          <path id="Path_18" data-name="Path 18" d="M36,57V90.733H187.8V57Z" transform="translate(23.035 187.564)" fill="#383838"/>
        </g>
        <path id="Path_19" data-name="Path 19" d="M53.733,67.035H20V83.9H53.733a59.035,59.035,0,0,0,59.035-59.035V8A59.035,59.035,0,0,1,53.733,67.035Z" transform="translate(126.366 44.599)" fill="#3d2012"/>
        <path id="Path_20" data-name="Path 20" d="M74.6,67.035H65.276A58.8,58.8,0,0,1,24,83.9H74.6a59.035,59.035,0,0,0,59.035-59.035V8A59.035,59.035,0,0,1,74.6,67.035Z" transform="translate(156.099 44.599)" fill="#4d2817"/>
        <path id="Path_21" data-name="Path 21" d="M105.9,61.272a58.729,58.729,0,0,1-25.3,5.757H71.276A58.8,58.8,0,0,1,30,83.9H80.6a59.206,59.206,0,0,0,59.035-59.035V8A58.968,58.968,0,0,1,105.9,61.272Z" transform="translate(200.698 44.599)" fill="#3d2012"/>
        <path id="Path_22" data-name="Path 22" d="M10,71.866,94.331,55h50.6a25.3,25.3,0,0,1,25.3,25.3v25.3H10Z" transform="translate(52.035 393.965)" fill="#fce0b9"/>
        <path id="Path_23" data-name="Path 23" d="M41,48.763V213.535H57.866V70.169a16.866,16.866,0,0,1,33.733,0V213.535h16.866V48.763C108.465,37.293,93.361,28,74.733,28S41,37.293,41,48.763Z" transform="translate(282.465 193.268)" fill="#262626"/>
        <path id="Path_24" data-name="Path 24" d="M36,59H187.8V75.866H36Z" transform="translate(245.302 423.698)" fill="#262626"/>
        <path id="Path_25" data-name="Path 25" d="M33,51.763A14.756,14.756,0,1,1,47.763,37.006,14.756,14.756,0,0,1,33,51.763ZM33,34.9a2.111,2.111,0,0,0-2.111,2.111c0,2.319,4.215,2.319,4.215,0A2.111,2.111,0,0,0,33,34.9Z" transform="translate(113.365 150.527)"/>
        <path id="Path_26" data-name="Path 26" d="M43,51.763A14.756,14.756,0,1,1,57.763,37.006,14.756,14.756,0,0,1,43,51.763ZM43,34.9a2.111,2.111,0,0,0-2.111,2.111c0,2.319,4.215,2.319,4.215,0A2.111,2.111,0,0,0,43,34.9Z" transform="translate(187.696 150.527)"/>
        <path id="Path_27" data-name="Path 27" d="M492.134,212.831H331.9v-25.3a41.973,41.973,0,0,0-16.866-33.512V127.809a67.453,67.453,0,0,0,33.732-58.344v-25.3a8.436,8.436,0,0,0-8.43-8.43H288.552C283.609,17.863,262.595,2,222.267,2H121.07A59.035,59.035,0,0,0,62.035,61.035v87.849a42.211,42.211,0,0,0-25.3,38.651v33.733A42.248,42.248,0,0,0,70.465,262.58v72.567C35.032,347.572,3,363.7,3,381.5V499.57A8.436,8.436,0,0,0,11.43,508H433.1a8.436,8.436,0,0,0,8.43-8.43V465.831a8.436,8.436,0,0,0-8.43-8.43H382.5V415.232H492.134a8.436,8.436,0,0,0,8.43-8.43V221.267a8.436,8.436,0,0,0-8.43-8.436Zm-202.4,0v-50.6a25.333,25.333,0,0,1,25.3,25.3v25.3ZM154.8,301.763a51.216,51.216,0,0,0,19.381,3.854h28.7a50.633,50.633,0,0,0,10.944-1.266v37.158a51.033,51.033,0,0,1-59.035-5.8Zm67.465-88.932a8.436,8.436,0,0,0-8.43,8.43v65.581a34.025,34.025,0,0,1-10.944,1.89H174.177a34.472,34.472,0,0,1-16.517-4.215l-38.914-21.326a42.04,42.04,0,0,1-14.572-31.885V162.233a8.192,8.192,0,0,0,4.282-1.321l.073.128,40.162-24.1H272.878v75.9ZM281.3,52.6V69.465a50.654,50.654,0,0,1-50.6,50.6H224.58a67.294,67.294,0,0,0,22.99-50.6V52.6ZM230.7,69.465a50.654,50.654,0,0,1-50.6,50.6H154.8V103.2a50.654,50.654,0,0,1,50.6-50.6h25.3Zm67.471,76.752a42.126,42.126,0,0,0-8.43-.85v-9.017a66.232,66.232,0,0,0,8.43-1.633ZM331.9,69.465a50.654,50.654,0,0,1-50.6,50.6h-6.118a67.294,67.294,0,0,0,22.99-50.6V52.6h33.739ZM121.07,35.733A42.364,42.364,0,0,1,154.8,18.866h67.465c25.663,0,41.753,7.616,47.8,16.866H205.4A67.545,67.545,0,0,0,137.93,103.2v20.543l-25.3,15.178V61.029a42.4,42.4,0,0,1,8.442-25.3ZM78.9,61.035a42.148,42.148,0,0,1,33.73-41.292,58.3,58.3,0,0,0-5.063,5.883A59.371,59.371,0,0,0,95.761,61.047V145.36H78.9ZM53.6,221.267V187.535a25.333,25.333,0,0,1,25.3-25.3h8.43V231.3a59.138,59.138,0,0,0,2.086,15.294H78.9a25.333,25.333,0,0,1-25.3-25.3Zm33.733,42.169h9.58a59.169,59.169,0,0,0,11.66,13.214,7.777,7.777,0,0,0,1.352.918l28.006,15.349v22.862c-13.973,3.334-32.117,8.02-50.6,13.789ZM19.866,381.5c0-6.411,20.445-17.184,50.6-28.141V455.523l-10.088,2.025,3.316,16.518,6.772-1.358V491.06h-50.6ZM213.831,491.134H87.331V469.386L147.2,457.413h49.767a16.885,16.885,0,0,1,16.866,16.866Zm59.035-25.3v25.3H230.7V474.28a33.769,33.769,0,0,0-33.732-33.733h-50.6a7.8,7.8,0,0,0-1.652.171L87.331,452.189V347.578c15.514-5.071,32.729-10,50.6-14.395v6.173a8.412,8.412,0,0,0,2.447,5.965A67.257,67.257,0,0,0,213.788,360.2v46.6a8.436,8.436,0,0,0,8.43,8.43H331.9V457.4H281.3a8.436,8.436,0,0,0-8.43,8.43Zm151.8,25.3H289.733V474.28H424.669Zm-75.9-33.732V263.43a8.436,8.436,0,0,1,16.866,0V457.4ZM483.7,398.366H382.5V263.43a25.3,25.3,0,1,0-50.6,0l0,134.936H230.7V229.7h253Z" transform="translate(0 0)"/>
      </g>
    </g>
    <g id="Group_3" data-name="Group 3">
      <g id="plant" transform="translate(35.548 378.526)">
        <path id="Path_7-2" data-name="Path 7" d="M329.648,51.7c.831,2.272,10.062,29.3-8.87,61.183-11.5,19.363-28.958,20.644-30.668,20.723-1-1.388-10.858-15.856-2.85-36.9C300.444,62.052,327.353,52.464,329.648,51.7Z" transform="translate(-144.048 -32.144)" fill="#80c56e"/>
        <path id="Path_8-2" data-name="Path 8" d="M339.447,51.7l-39.538,81.906h0c1.71-.079,19.169-1.36,30.668-20.723C349.509,81.007,340.278,53.973,339.447,51.7Z" transform="translate(-153.846 -32.144)" fill="#66ad66"/>
        <path id="Path_9-2" data-name="Path 9" d="M102.681,51.7c-.831,2.272-10.062,29.3,8.87,61.183,11.5,19.363,28.958,20.644,30.668,20.723,1-1.388,10.858-15.856,2.85-36.9C131.885,62.052,104.976,52.464,102.681,51.7Z" transform="translate(-29.377 -32.144)" fill="#80c56e"/>
        <path id="Path_10-2" data-name="Path 10" d="M149.961,96.7c-13.185-34.652-40.093-44.24-42.388-45,23.38,44.656,35.991,73.26,39.634,81.77C148.61,131.467,157.763,117.21,149.961,96.7Z" transform="translate(-34.269 -32.144)" fill="#66ad66"/>
        <path id="Path_11-2" data-name="Path 11" d="M205.417,7.5c-2.819,2.735-35.4,35.752-30.22,95.735,3.147,36.433,27.775,50.632,30.22,51.955,2.445-1.324,27.072-15.522,30.22-51.955C240.82,43.252,208.237,10.235,205.417,7.5Z" transform="translate(-75.966 -4.663)" fill="#80c56e"/>
        <path id="Path_12-2" data-name="Path 12" d="M256,7.5V155.19c2.445-1.324,27.072-15.522,30.22-51.955C291.4,43.252,258.818,10.235,256,7.5Z" transform="translate(-126.547 -4.663)" fill="#66ad66"/>
        <path id="Path_13-2" data-name="Path 13" d="M325.758,183.4a118.052,118.052,0,0,0,4.056-40.653s-11.806,5.259-41.476,24.432c-23.063,14.9-30.2,41.033-32.337,48.075h27.1A44.372,44.372,0,0,0,325.758,183.4Z" transform="translate(-126.548 -88.75)" fill="#80c56e"/>
        <path id="Path_14-2" data-name="Path 14" d="M329.813,142.751S299.32,202.989,256,215.259h27.1A44.372,44.372,0,0,0,325.757,183.4,118.052,118.052,0,0,0,329.813,142.751Z" transform="translate(-126.548 -88.75)" fill="#66ad66"/>
        <path id="Path_15-2" data-name="Path 15" d="M64.378,183.4a118.057,118.057,0,0,1-4.056-40.653s11.806,5.259,41.476,24.432c23.063,14.9,30.2,41.033,32.337,48.075h-27.1A44.371,44.371,0,0,1,64.378,183.4Z" transform="translate(-4.682 -88.75)" fill="#80c56e"/>
        <path id="Path_16-2" data-name="Path 16" d="M134.69,215.259c-2.138-7.042-9.274-33.172-32.337-48.075-29.67-19.173-41.476-24.432-41.476-24.432S91.37,202.989,134.69,215.259Z" transform="translate(-5.238 -88.75)" fill="#66ad66"/>
        <path id="Path_17-2" data-name="Path 17" d="M194.7,401.243H155.5a21.582,21.582,0,0,1-21.218-17.636l-8.4-45.193h98.444l-8.4,45.193A21.582,21.582,0,0,1,194.7,401.243Z" transform="translate(-45.652 -210.396)" fill="#fec37d"/>
        <path id="Path_18-2" data-name="Path 18" d="M287.1,338.414l-8.4,45.193a21.581,21.581,0,0,1-21.218,17.636h19.04a21.582,21.582,0,0,0,21.218-17.636l8.4-45.193Z" transform="translate(-127.466 -210.396)" fill="#f9ae5d"/>
        <path id="Path_19-2" data-name="Path 19" d="M210.937,340.691H109.061a7.475,7.475,0,0,1-7.475-7.475h0a7.475,7.475,0,0,1,7.475-7.475H210.938a7.475,7.475,0,0,1,7.475,7.475h0A7.476,7.476,0,0,1,210.937,340.691Z" transform="translate(-30.547 -202.517)" fill="#f2a559"/>
        <path id="Path_20-2" data-name="Path 20" d="M370.972,325.741H359v14.95h11.976a7.475,7.475,0,0,0,7.475-7.475h0A7.475,7.475,0,0,0,370.972,325.741Z" transform="translate(-190.581 -202.517)" fill="#ea8f3d"/>
        <path id="Path_21-2" data-name="Path 21" d="M201.933,95.447A119.852,119.852,0,0,0,206.086,53.7c0-.006,0-.012,0-.018a2.784,2.784,0,0,0-.052-.312c0-.008,0-.016-.006-.023a2.788,2.788,0,0,0-.079-.271c-.011-.031-.023-.061-.035-.091-.026-.067-.053-.132-.084-.2-.015-.031-.03-.062-.046-.093-.034-.065-.07-.128-.109-.191-.016-.025-.03-.05-.047-.075a2.781,2.781,0,0,0-.165-.224l-.017-.022a2.8,2.8,0,0,0-.22-.235l-.028-.025c-.066-.061-.135-.12-.207-.175-.026-.02-.054-.039-.081-.058-.057-.041-.117-.08-.178-.117l-.047-.031c-.019-.011-.039-.019-.058-.029s-.051-.031-.078-.044-.067-.029-.1-.045-.073-.034-.109-.049c-.069-.028-.139-.053-.21-.075-.028-.009-.054-.019-.082-.027a2.807,2.807,0,0,0-.62-.105h-.06q-.124,0-.247,0l-.095.007q-.107.009-.213.026l-.1.018c-.073.015-.144.033-.215.053-.029.008-.057.015-.086.024a2.793,2.793,0,0,0-.289.109l-.008,0c-.279.124-4.243,1.913-13.045,6.945,5.378-21.726-.094-37.841-.8-39.771-.008-.022-.019-.042-.027-.064-.017-.044-.036-.087-.055-.13s-.039-.085-.061-.126-.042-.078-.064-.117-.049-.084-.075-.124-.047-.071-.072-.106-.057-.079-.087-.117-.054-.067-.083-.1-.064-.072-.1-.106-.062-.062-.093-.092-.07-.065-.107-.1-.066-.055-.1-.082-.08-.061-.121-.089-.068-.047-.1-.069-.092-.056-.139-.082c-.022-.012-.042-.026-.065-.038s-.026-.011-.039-.018c-.048-.024-.1-.046-.146-.067s-.075-.033-.113-.048-.091-.032-.137-.047-.084-.029-.127-.04-.088-.021-.132-.031-.09-.022-.135-.03-.093-.012-.14-.019-.086-.012-.129-.016-.106,0-.159-.005c-.037,0-.074,0-.111,0-.056,0-.112.006-.168.011-.035,0-.07,0-.1.008-.051.006-.1.016-.153.025s-.081.012-.121.021-.085.022-.128.033-.1.025-.144.04l-.024.006c-1.776.589-16.639,5.889-29.927,21.968C146.1,15.656,133.451,2.762,131.428.8c-.023-.022-.047-.041-.071-.062-.04-.037-.081-.074-.123-.108s-.069-.052-.1-.078-.077-.057-.117-.084S130.935.42,130.9.4s-.078-.047-.118-.068-.082-.04-.124-.059-.083-.04-.126-.057-.083-.031-.125-.046-.089-.033-.135-.046S130.183.1,130.14.087,130.048.062,130,.053s-.1-.015-.146-.022-.084-.014-.126-.018c-.083-.008-.167-.012-.251-.012h-.052c-.084,0-.167,0-.251.012-.043,0-.084.012-.126.018s-.1.013-.146.022-.093.022-.139.033-.085.02-.127.033-.09.03-.135.046-.084.029-.125.046-.084.037-.126.057-.083.038-.124.06-.079.045-.118.068-.079.046-.118.072-.079.056-.117.084-.07.05-.1.078-.083.071-.123.108c-.023.021-.048.04-.071.062-2.022,1.962-14.673,14.856-23.352,38.032C90.837,22.754,75.973,17.455,74.2,16.866l-.025-.007c-.044-.014-.09-.025-.135-.037s-.092-.026-.137-.036-.07-.012-.1-.018c-.057-.01-.113-.021-.17-.027-.026,0-.053,0-.08-.006-.064-.006-.129-.011-.193-.012-.029,0-.058,0-.086,0-.062,0-.123,0-.184.006-.037,0-.074.009-.111.013-.053.006-.106.012-.158.021s-.084.018-.126.027-.094.02-.141.033-.083.026-.124.04-.093.03-.138.048-.077.033-.115.049-.095.042-.141.065c-.014.007-.028.012-.041.019s-.046.028-.069.041c-.045.025-.089.051-.132.078s-.073.048-.109.073-.077.055-.115.084-.072.057-.106.087-.068.06-.1.092-.067.064-.1.1-.062.067-.092.1-.059.068-.087.1-.057.075-.084.113-.051.073-.075.11-.05.08-.073.121-.044.079-.065.119-.04.082-.06.124-.038.087-.055.131c-.008.022-.019.042-.027.064-.706,1.931-6.178,18.045-.8,39.771-8.8-5.033-12.766-6.821-13.045-6.945l-.009,0A2.817,2.817,0,0,0,56.5,51.3c-.031-.01-.063-.017-.094-.026-.068-.019-.137-.037-.207-.051L56.09,51.2c-.068-.011-.137-.019-.205-.025l-.1-.008c-.079,0-.158,0-.237,0-.023,0-.047,0-.07,0a2.81,2.81,0,0,0-.615.1c-.031.009-.062.021-.093.031-.066.022-.132.044-.2.071-.04.016-.08.035-.119.053s-.063.026-.094.042-.048.028-.072.041-.043.02-.063.032-.034.023-.052.034c-.057.035-.112.071-.166.11-.031.022-.062.042-.091.065-.067.051-.13.105-.191.161l-.044.039a2.745,2.745,0,0,0-.215.23c-.01.012-.018.025-.028.037-.055.068-.106.137-.154.21-.018.027-.035.056-.052.084-.037.059-.071.119-.1.181-.017.033-.034.067-.05.1-.029.061-.055.124-.079.187-.013.033-.026.066-.038.1-.029.083-.053.168-.074.253,0,.014-.008.027-.011.04a2.91,2.91,0,0,0-.051.308c0,.007,0,.013,0,.02a119.851,119.851,0,0,0,4.153,41.745,46.655,46.655,0,0,0,19.2,26.033,10.309,10.309,0,0,0,3.584,19.48l6.094,32.77a24.425,24.425,0,0,0,24.008,19.954h39.2A24.425,24.425,0,0,0,173.06,173.73l6.085-32.718h3.511a10.312,10.312,0,0,0,1.508-20.513A46.647,46.647,0,0,0,201.933,95.447ZM181.973,62.5c-4.651,2.776-10.193,6.181-16.7,10.328l-.175.112q-1.155.736-2.35,1.5l-.122.078c-.017-.217-.038-.434-.056-.65q-.073-.868-.155-1.727c6.59-13.856,14.074-28.869,22.3-44.728A71.544,71.544,0,0,1,181.973,62.5Zm-2.688-36.958c-6.587,12.719-12.7,24.894-18.256,36.366a129.887,129.887,0,0,0-4.053-16.7A71.1,71.1,0,0,1,179.285,25.544Zm-47-15.284A104.111,104.111,0,0,1,142.431,25.5a117.99,117.99,0,0,1,8.628,19.821c.02.089.041.178.07.266A126.628,126.628,0,0,1,156.981,75.2c.006.079.012.157.018.236q.067.881.121,1.764c.011.169.022.337.031.507.009.153.016.307.024.461-9.169,6.678-16.688,15.725-22.483,27.027l-.042.081q-.331.647-.655,1.3l-.107.218q-.308.63-.61,1.268c-.036.075-.07.151-.105.226q-.45.961-.885,1.943V10.26Zm-24.514,35.33c.029-.088.05-.177.07-.266A117.99,117.99,0,0,1,116.473,25.5,104.049,104.049,0,0,1,126.615,10.26v99.972q-.435-.983-.886-1.946l-.1-.222q-.3-.64-.612-1.271l-.106-.216q-.324-.658-.655-1.305l-.042-.081c-5.8-11.3-13.315-20.349-22.483-27.027.009-.154.015-.308.024-.461.01-.169.021-.337.031-.507q.056-.883.121-1.764c.006-.079.012-.158.018-.236A126.587,126.587,0,0,1,107.775,45.589Zm-5.847-.378a129.955,129.955,0,0,0-4.053,16.7C92.319,50.441,86.207,38.266,79.619,25.544A71.1,71.1,0,0,1,101.928,45.211ZM74.2,27.418c8.224,15.862,15.707,30.875,22.3,44.728q-.083.857-.155,1.726c-.018.217-.039.433-.056.65l-.121-.078q-1.215-.78-2.387-1.526l-.118-.075c-6.521-4.154-12.07-7.564-16.727-10.342A71.528,71.528,0,0,1,74.2,27.418Zm7.721,44.76.815.5q.918.569,1.868,1.161.7.439,1.413.884l1.106.695q1,.632,2.023,1.278l.727.461q1.209.768,2.437,1.554l.584.375q1.331.854,2.682,1.726c.323.209.642.423.961.637.209.141.424.288.65.445l.009.006h0c11.4,7.9,20.173,19.747,26.152,35.266.037.1.073.2.11.292q.256.671.507,1.349c.075.206.149.415.223.623.114.316.228.632.339.951h-3.441c-19.064-8.716-35.051-26.443-45.139-39.847A223.142,223.142,0,0,1,62.774,60.9C67.2,63.343,73.5,66.975,81.921,72.179ZM62.42,93.862a114.652,114.652,0,0,1-4.253-29.587A228.417,228.417,0,0,0,71.35,83.866c12.223,16.257,24.9,28.493,37.8,36.521H86.124A41.139,41.139,0,0,1,62.42,93.862ZM187.293,130.7a4.643,4.643,0,0,1-4.638,4.638H115.833a2.837,2.837,0,0,0,0,5.674h57.538l-5.892,31.681a18.748,18.748,0,0,1-18.427,15.317h-39.2a18.748,18.748,0,0,1-18.428-15.317l-5.892-31.681h10a2.837,2.837,0,1,0,0-5.674H80.778a4.638,4.638,0,1,1,0-9.276H182.655A4.643,4.643,0,0,1,187.293,130.7ZM172.78,120.387H149.744c12.078-7.52,23.982-18.747,35.5-33.507a2.837,2.837,0,1,0-4.473-3.491c-13.955,17.879-28.374,30.315-42.859,36.96-.025.011-.048.026-.073.038h-3.465c.112-.319.225-.635.339-.951.075-.207.148-.417.223-.623q.249-.68.507-1.349c.037-.1.073-.2.11-.292,5.979-15.519,14.756-27.363,26.152-35.266h0l.009-.006c.226-.157.44-.3.649-.444.319-.215.639-.429.962-.638q1.35-.872,2.675-1.721l.6-.384q1.221-.781,2.422-1.545l.759-.481q.985-.624,1.957-1.236l1.179-.74,1.355-.847q1.025-.639,2.012-1.251l.67-.415c8.444-5.216,14.756-8.854,19.183-11.3-1.092,1.832-2.367,3.908-3.816,6.165a2.837,2.837,0,1,0,4.775,3.065c1.371-2.136,2.588-4.109,3.647-5.873a114.544,114.544,0,0,1-4.259,29.6A41.139,41.139,0,0,1,172.78,120.387Z"/>
      </g>
      <g id="food" transform="translate(776.398 424)">
        <path id="Path_22-2" data-name="Path 22" d="M119.121,71.828H31.074L45.7,174.607a5.288,5.288,0,0,0,5.234,4.543H99.259a5.288,5.288,0,0,0,5.235-4.543Zm0,0" transform="translate(-22.99 -54.011)" fill="#f3e8d7"/>
        <path id="Path_23-2" data-name="Path 23" d="M281.43,71.828,266.156,179.149h9.873a5.287,5.287,0,0,0,5.234-4.543L295.891,71.828Zm0,0" transform="translate(-199.761 -54.011)" fill="#e5d8c6"/>
        <path id="Path_24-2" data-name="Path 24" d="M121.724,7.5h-69.8a2.094,2.094,0,0,0-2.051,1.671L46.672,24.714H126.98L123.775,9.175A2.094,2.094,0,0,0,121.724,7.5Zm0,0" transform="translate(-34.719 -5.643)" fill="#464c50"/>
        <path id="Path_25-2" data-name="Path 25" d="M124.656,13.437l-.879-4.261A2.1,2.1,0,0,0,121.726,7.5H109.219l.682,3.307c.557,2.7-1.507,3.994-4.266,3.994H48.716l-2.043,9.909h80.31Zm0,0" transform="translate(-34.719 -5.643)" fill="#31363b"/>
        <path id="Path_26-2" data-name="Path 26" d="M104.413,68.1H11.087A3.084,3.084,0,0,1,8,65.016V56.841a3.084,3.084,0,0,1,3.083-3.083h93.325a3.084,3.084,0,0,1,3.083,3.083v8.175A3.083,3.083,0,0,1,104.413,68.1Zm0,0" transform="translate(-5.643 -40.423)" fill="#464c50"/>
        <path id="Path_27-2" data-name="Path 27" d="M104.416,53.758H93.182v2.568c0,4.88-2.412,7.594-7.291,7.594H12.635a3.083,3.083,0,0,1-3.083-3.083l-1.544,4.18A3.083,3.083,0,0,0,11.091,68.1h93.324a3.084,3.084,0,0,0,3.083-3.083V56.841a3.084,3.084,0,0,0-3.083-3.083Zm0,0" transform="translate(-5.646 -40.423)" fill="#31363b"/>
        <path id="Path_28" data-name="Path 28" d="M43.665,230.529l-9.179-64.489a2.486,2.486,0,0,1,2.462-2.836h81.393a2.486,2.486,0,0,1,2.461,2.836l-9.179,64.489a2.486,2.486,0,0,1-2.461,2.135H46.126a2.486,2.486,0,0,1-2.461-2.135Zm0,0" transform="translate(-25.537 -122.721)" fill="#d38231"/>
        <path id="Path_29" data-name="Path 29" d="M307.687,163.2H296.152l-9.886,69.461h12.242a2.487,2.487,0,0,0,2.461-2.136l9.179-64.489a2.486,2.486,0,0,0-2.461-2.836Zm0,0" transform="translate(-214.883 -122.721)" fill="#c1752f"/>
        <path id="Path_30" data-name="Path 30" d="M172.457,236.467c-5.462-5.462-15.575-4.2-22.588,2.808S141.6,256.4,147.06,261.862s15.575,4.2,22.588-2.808S177.919,241.927,172.457,236.467Zm0,0" transform="translate(-107.652 -175.257)" fill="#a0e557"/>
        <path id="Path_31" data-name="Path 31" d="M98.77,11.473H92.6L90.881,3.157A3.972,3.972,0,0,0,87.006,0h-69.8a3.97,3.97,0,0,0-3.875,3.157l-1.716,8.316H5.444A4.95,4.95,0,0,0,.5,16.418v8.175a4.951,4.951,0,0,0,4.944,4.945H7.871L9.246,39.2a4.337,4.337,0,0,0-2.139,4.381l9.179,64.489a4.372,4.372,0,0,0,3.277,3.606l1.306,9.182A7.184,7.184,0,0,0,27.946,127H76.269a7.184,7.184,0,0,0,7.078-6.142l1.306-9.182a4.372,4.372,0,0,0,3.277-3.606l9.179-64.489a4.334,4.334,0,0,0-2.14-4.381l1.376-9.661h2.426a4.951,4.951,0,0,0,4.944-4.945V16.418a4.951,4.951,0,0,0-4.945-4.944ZM93.421,43.055l-9.179,64.489a.626.626,0,0,1-.617.536H65.8a1.862,1.862,0,0,0,0,3.725h15.07l-1.214,8.529a3.443,3.443,0,0,1-3.391,2.943H27.946a3.443,3.443,0,0,1-3.391-2.943L23.341,111.8h33.8a1.862,1.862,0,1,0,0-3.725H20.589a.626.626,0,0,1-.617-.536L10.793,43.055a.618.618,0,0,1,.146-.5.624.624,0,0,1,.439-.21l.076,0H92.76l.076,0a.624.624,0,0,1,.439.21.618.618,0,0,1,.146.5ZM11.633,29.538H92.583L91.29,38.62H12.926Zm88.358-4.945a1.222,1.222,0,0,1-1.221,1.221H5.445a1.223,1.223,0,0,1-1.221-1.221V16.418A1.223,1.223,0,0,1,5.445,15.2H22.107a1.862,1.862,0,0,0,0-3.724H15.422l1.56-7.563a.234.234,0,0,1,.228-.186h69.8a.234.234,0,0,1,.228.186l1.56,7.563H30.773a1.862,1.862,0,1,0,0,3.724h68a1.222,1.222,0,0,1,1.221,1.221Zm0,0"/>
        <path id="Path_32" data-name="Path 32" d="M168.115,229.561l-.04-.037c-6.19-6.126-17.465-4.854-25.173,2.854a22.544,22.544,0,0,0-6.614,12.962,14.376,14.376,0,0,0,3.8,12.259l0,0,.015.014a13.887,13.887,0,0,0,10.015,3.93,18.223,18.223,0,0,0,2.227-.141,22.555,22.555,0,0,0,12.963-6.614c7.727-7.728,8.988-19.042,2.809-25.221l-.009-.009ZM139.984,245.8a18.822,18.822,0,0,1,5.551-10.789,18.268,18.268,0,0,1,12.521-5.671,11.028,11.028,0,0,1,5.28,1.263c-3.127,1.857-7.982,5.511-9.459,10.927-1.285,4.708-8.255,9.924-12.081,12.342a11.162,11.162,0,0,1-1.813-8.071Zm22.7,6.357a18.816,18.816,0,0,1-10.789,5.551,11.525,11.525,0,0,1-7.225-1.263c3.84-2.535,11.2-8.04,12.8-13.937,1.313-4.817,6.5-8.06,8.872-9.32,3.686,4.907,2.2,13.1-3.662,18.969Zm0,0" transform="translate(-102.001 -169.678)"/>
      </g>
      <g id="book" transform="translate(922 313.017)">
        <path id="Path_33" data-name="Path 33" d="M7.574,7.574H70.312V249.563H7.574Zm0,0" transform="translate(-3.373 -3.373)" fill="#8db0ff"/>
        <path id="Path_34" data-name="Path 34" d="M61.91,7.574V235a5.6,5.6,0,0,1-5.6,5.6H7.574v8.964H70.312V7.574Zm0,0" transform="translate(-3.373 -3.373)" fill="#669af7"/>
        <path id="Path_35" data-name="Path 35" d="M39.891,39.891H66.778V246.029H39.891Zm0,0" transform="translate(-17.764 -17.764)" fill="#ffd664"/>
        <path id="Path_36" data-name="Path 36" d="M58.936,39.891V232.025a5.6,5.6,0,0,1-5.6,5.6H39.891v8.4H66.778V39.891Zm0,0" transform="translate(-17.764 -17.764)" fill="#f9c646"/>
        <path id="Path_37" data-name="Path 37" d="M120.68,118.66h51.534V299.031H120.68Zm0,0" transform="translate(-53.74 -52.841)" fill="#ff6969"/>
        <path id="Path_38" data-name="Path 38" d="M163.252,118.66V284.466a5.6,5.6,0,0,1-5.6,5.6H120.68v8.964h51.534V118.66Zm0,0" transform="translate(-53.74 -52.841)" fill="#ea4747"/>
        <path id="Path_39" data-name="Path 39" d="M120.68,363.047h51.534v20.164H120.68Zm0,0" transform="translate(-53.74 -161.669)" fill="#ffd664"/>
        <path id="Path_40" data-name="Path 40" d="M197.43,363.047h8.962v20.164H197.43Zm0,0" transform="translate(-87.918 -161.669)" fill="#f9c646"/>
        <path id="Path_41" data-name="Path 41" d="M120.68,163.094h51.534V183.26H120.68Zm0,0" transform="translate(-53.74 -72.628)" fill="#ffd664"/>
        <path id="Path_42" data-name="Path 42" d="M197.43,163.094h8.962V183.26H197.43Zm0,0" transform="translate(-87.918 -72.628)" fill="#f9c646"/>
        <path id="Path_43" data-name="Path 43" d="M257.325,391.952a13.445,13.445,0,0,1,0-26.889H377.2V391.95H257.325Zm0,0" transform="translate(-108.604 -162.567)" fill="#ddf5ff"/>
        <path id="Path_44" data-name="Path 44" d="M368.854,365.066v12.322a5.6,5.6,0,0,1-5.6,5.6H245.269a13.466,13.466,0,0,0,12.673,8.962H377.816V365.066Zm0,0" transform="translate(-109.221 -162.568)" fill="#c1e9f4"/>
        <path id="Path_45" data-name="Path 45" d="M243.834,378.462a13.445,13.445,0,0,1,0-26.889H374.911v-16.8H243.834a30.249,30.249,0,0,0,0,60.5H374.911V378.462Zm0,0" transform="translate(-95.112 -149.077)" fill="#7ae57d"/>
        <path id="Path_46" data-name="Path 46" d="M485.238,334.77h10.643v16.805H485.238Zm0,0" transform="translate(-216.082 -149.077)" fill="#66d166"/>
        <path id="Path_47" data-name="Path 47" d="M485.238,413.539h10.643v16.805H485.238Zm0,0" transform="translate(-216.082 -184.154)" fill="#66d166"/>
        <path id="Path_48" data-name="Path 48" d="M268.117,389.3v29.128l13.445-5.6,12.883,5.6V389.3Zm0,0" transform="translate(-119.396 -173.361)" fill="#ffd664"/>
        <path id="Path_49" data-name="Path 49" d="M316.865,249.113a3.83,3.83,0,0,0-5.8,0,14,14,0,0,1-10.747,4.708c-21.607,0-42.455-32.347-42.455-67.852,0-13.4,7.581-32.978,31.84-32.978,0,0,10.912-.124,19.119,7.4a7.6,7.6,0,0,0,10.281,0c8.208-7.521,19.119-7.4,19.119-7.4,24.259,0,31.84,19.581,31.84,32.978,0,35.5-20.848,67.852-42.453,67.852A14.013,14.013,0,0,1,316.865,249.113Zm0,0" transform="translate(-114.831 -68.129)" fill="#ff6969"/>
        <path id="Path_50" data-name="Path 50" d="M388.01,152.992a30.076,30.076,0,0,0-7.731,1.209c16.63,4.457,22.136,20.354,22.136,31.769,0,30.124-15.009,57.972-32.755,65.719a14.565,14.565,0,0,0,7.735,2.132c21.607,0,42.455-32.347,42.455-67.852,0-13.4-7.581-32.978-31.84-32.978Zm0,0" transform="translate(-164.614 -68.129)" fill="#ea4747"/>
        <path id="Path_51" data-name="Path 51" d="M63.4,246.857a4.2,4.2,0,0,0,4.2-4.2V36.518a4.2,4.2,0,0,0-4.2-4.2H36.518a4.2,4.2,0,0,0-4.2,4.2V242.656a4.2,4.2,0,0,0,4.2,4.2ZM40.719,40.719H59.2V238.454H40.719Zm0,0" transform="translate(-14.391 -14.391)"/>
        <path id="Path_52" data-name="Path 52" d="M279.8,206.7a4.2,4.2,0,0,0,4.2-4.2V185.693a4.2,4.2,0,0,0-4.2-4.2H233.584c14.935-12.461,25.854-37.227,25.854-63.65a40.742,40.742,0,0,0-7.664-24.034c-4.5-6-13.072-13.143-28.33-13.143h-.082c-1.239,0-11.941.223-20.764,7.5-.5-5.443-.637-14.745,2.576-23.73a4.2,4.2,0,0,0-7.911-2.83,64.323,64.323,0,0,0-3.2,25.316,35.364,35.364,0,0,0-19.182-6.255c-15.306,0-23.88,7.148-28.378,13.143a40.744,40.744,0,0,0-7.664,24.036c0,26.421,10.918,51.187,25.854,63.648H148.721a34.375,34.375,0,0,0-26.049,11.943V142.772a4.2,4.2,0,1,0-8.4,0v54.4H71.139V114.834h43.133v8.5a4.2,4.2,0,1,0,8.4,0V65.819a4.2,4.2,0,0,0-4.2-4.2H71.139V4.2a4.2,4.2,0,0,0-4.2-4.2H4.2A4.2,4.2,0,0,0,0,4.2V22.43a4.2,4.2,0,0,0,8.4,0V8.4H62.738V241.989H8.4V42.082a4.2,4.2,0,0,0-8.4,0V246.19a4.2,4.2,0,0,0,4.2,4.2H118.474a4.2,4.2,0,0,0,4.2-4.2v-7.718c.542.622,1.1,1.235,1.688,1.824a34.2,34.2,0,0,0,24.359,10.093H208.4a4.2,4.2,0,1,0,0-8.4H179.251v-8.4H275.6v8.4h-47.56a4.2,4.2,0,1,0,0,8.4H279.8a4.2,4.2,0,0,0,4.2-4.2V229.385a4.2,4.2,0,0,0-4.2-4.2h-7V206.7ZM159.713,162.838c-7.928-12.55-12.476-28.95-12.476-45,0-2.945.776-28.777,27.674-28.777.381,0,9.458.072,16.248,6.294a11.8,11.8,0,0,0,15.956,0c6.784-6.216,15.85-6.294,16.281-6.294,26.863,0,27.639,25.832,27.639,28.777,0,16.047-4.546,32.447-12.474,45-7.49,11.854-16.885,18.654-25.778,18.654a9.812,9.812,0,0,1-7.586-3.274,8.033,8.033,0,0,0-12.121,0,9.815,9.815,0,0,1-7.586,3.274c-8.895,0-18.29-6.8-25.778-18.654Zm-45.441,42.739V217.34H71.141V205.577ZM71.141,106.431V94.668h43.131v11.763Zm43.131-36.41V86.265H71.141V70.021ZM71.141,241.989V225.743h43.131v16.246Zm51.534-26.049a26.077,26.077,0,0,1,26.046-26.046H275.6v8.4H148.721a17.644,17.644,0,0,0-4.2,34.781v8.569a26.055,26.055,0,0,1-21.845-25.706Zm48.173,22.721-7.007-3.046a4.2,4.2,0,0,0-3.291-.024l-7.627,3.176V220.142h17.926ZM264.4,225.184H179.251V215.94a4.2,4.2,0,0,0-4.2-4.2H148.721a4.2,4.2,0,0,0-4.2,4.2v8.223a9.237,9.237,0,0,1,4.2-17.466H264.393v18.487Zm0,0"/>
      </g>
    </g>
    <g id="thought" transform="translate(647)">
      <path id="Path_53" data-name="Path 53" d="M42.557,126.021A29.769,29.769,0,0,0,82.7,167.8a44.663,44.663,0,0,0,81.469.278A48.413,48.413,0,1,0,185.691,75.2,55.868,55.868,0,0,0,78.132,45.756a44.689,44.689,0,1,0-35.575,80.265Zm0,0" transform="translate(-4.274 -4.274)" fill="#d1a339"/>
      <g id="Group_4" data-name="Group 4" transform="translate(3.726 3.726)">
        <path id="Path_54" data-name="Path 54" d="M164.484,52.71a111.593,111.593,0,0,0-6.553-37.757,55.823,55.823,0,0,0-79.8,30.8,44.689,44.689,0,1,0-35.575,80.265,29.7,29.7,0,0,0,5.25,38.339c1.628.071,3.26.124,4.9.124A111.773,111.773,0,0,0,164.484,52.71Zm0,0" transform="translate(-8 -8)" fill="#f0d365"/>
        <path id="Path_55" data-name="Path 55" d="M22.9,463.452A7.452,7.452,0,1,1,15.452,456,7.452,7.452,0,0,1,22.9,463.452Zm0,0" transform="translate(-8 -247.355)" fill="#f0d365"/>
        <path id="Path_56" data-name="Path 56" d="M85.806,398.9A14.9,14.9,0,1,1,70.9,384,14.9,14.9,0,0,1,85.806,398.9Zm0,0" transform="translate(-33.645 -208.887)" fill="#f0d365"/>
      </g>
      <path id="Path_57" data-name="Path 57" d="M119.226,193.742a48.5,48.5,0,0,1-42.459-25.186,33.5,33.5,0,0,1-43.977-44.5A48.422,48.422,0,1,1,72.009,35.939,59.6,59.6,0,0,1,185.757,67.583,52.135,52.135,0,1,1,161.7,168.5a48.548,48.548,0,0,1-42.477,25.238Zm-40.8-33.934a3.731,3.731,0,0,1,3.4,2.2,40.937,40.937,0,0,0,74.676.249,3.733,3.733,0,0,1,4.852-1.881,44.687,44.687,0,1,0,19.873-85.737,3.729,3.729,0,0,1-3.455-4.472,52.813,52.813,0,0,0,1.07-10.559A52.136,52.136,0,0,0,77.381,42.69a3.726,3.726,0,0,1-5.645,1.856,40.965,40.965,0,1,0-32.612,73.577,3.724,3.724,0,0,1,2.289,5.645,26.042,26.042,0,0,0,35.122,36.549,3.754,3.754,0,0,1,1.888-.509Zm0,0"/>
      <path id="Path_60" data-name="Path 60" d="M231.452,207.452h0ZM224,200" transform="translate(-119.677 -106.855)"/>
      <path id="Path_62" data-name="Path 62" d="M11.177,470.355a11.177,11.177,0,1,1,11.177-11.177A11.192,11.192,0,0,1,11.177,470.355Zm0-14.9a3.726,3.726,0,1,0,3.726,3.726A3.731,3.731,0,0,0,11.177,455.452Zm0,0" transform="translate(0 -239.355)"/>
      <path id="Path_63" data-name="Path 63" d="M66.629,413.258a18.629,18.629,0,1,1,18.629-18.629A18.651,18.651,0,0,1,66.629,413.258Zm0-29.806a11.177,11.177,0,1,0,11.177,11.177A11.192,11.192,0,0,0,66.629,383.452Zm0,0" transform="translate(-25.645 -200.887)"/>
      <path id="Path_64" data-name="Path 64" d="M316.71,76.71h-7.452A37.3,37.3,0,0,0,272,39.452V32A44.759,44.759,0,0,1,316.71,76.71Zm0,0" transform="translate(-145.323 -17.097)"/>
      <text id="_" data-name="&lt;/&gt;" transform="translate(77 125)" font-size="70" font-family="Bison-Bold, Bison" font-weight="700"><tspan x="0" y="0">&lt;/&gt;</tspan></text>
    </g>
  </g>
</svg>
