<svg xmlns="http://www.w3.org/2000/svg" width="81.333" height="82.712" viewBox="0 0 81.333 82.712">
  <g id="programmer_1_" data-name="programmer (1)" transform="translate(-3 -2)">
    <path id="Path_1" data-name="Path 1" d="M21.893,18.164a9.65,9.65,0,0,1,9.65-9.65H43.949C43.949,5.469,40.39,3,34.3,3H23.271A8.271,8.271,0,0,0,15,11.271V26.435L21.893,22.3Z" transform="translate(4.542 0.378)" fill="#4d2817"/>
    <path id="Path_2" data-name="Path 2" d="M16.271,32.669V20H13.514A5.514,5.514,0,0,0,8,25.514v5.515a5.514,5.514,0,0,0,5.514,5.514h3.735A8.257,8.257,0,0,1,16.271,32.669Z" transform="translate(1.893 6.814)" fill="#606060"/>
    <path id="Path_3" data-name="Path 3" d="M42.893,31.028V25.514A5.514,5.514,0,0,0,37.379,20H36V31.028Z" transform="translate(12.492 6.814)" fill="#606060"/>
    <path id="Path_4" data-name="Path 4" d="M35.164,11.136V7H29.65A9.65,9.65,0,0,0,20,16.65v4.136h5.514a9.65,9.65,0,0,0,9.65-9.65Z" transform="translate(6.435 1.893)" fill="#4d2817"/>
    <path id="Path_5" data-name="Path 5" d="M33.65,11.136A9.65,9.65,0,0,1,24,20.785h8.271a9.65,9.65,0,0,0,9.65-9.65V7H33.65Z" transform="translate(7.949 1.893)" fill="#66351e"/>
    <path id="Path_6" data-name="Path 6" d="M30,20.785h8.271a9.6,9.6,0,0,0,4.136-.941h0a9.641,9.641,0,0,0,5.514-8.708V7H39.65v4.136A9.65,9.65,0,0,1,30,20.785Z" transform="translate(10.22 1.893)" fill="#4d2817"/>
    <path id="Path_7" data-name="Path 7" d="M22.028,3H19.271A8.271,8.271,0,0,0,11,11.271V26.435h5.514V11.271A8.271,8.271,0,0,1,24.785,3Z" transform="translate(3.028 0.378)" fill="#66351e"/>
    <path id="Path_8" data-name="Path 8" d="M12.136,32.407V26.893a5.5,5.5,0,0,1,4.136-5.32V20H13.514A5.514,5.514,0,0,0,8,25.514v5.515a5.514,5.514,0,0,0,5.514,5.514h.524a5.475,5.475,0,0,1-1.9-4.136Z" transform="translate(1.893 6.814)" fill="#878787"/>
    <path id="Path_9" data-name="Path 9" d="M37.378,20H36v2.757a5.514,5.514,0,0,1,5.514,5.514v2.757h1.378V25.514A5.514,5.514,0,0,0,37.379,20Z" transform="translate(12.492 6.814)" fill="#878787"/>
    <path id="Path_10" data-name="Path 10" d="M55.006,44.624c3.837,1.554,6.893,3.324,6.893,5.026v19.3H4V49.65C4,45.081,26.056,40,26.056,40H39.842Z" transform="translate(0.378 14.384)" fill="#9406ff"/>
    <path id="Path_11" data-name="Path 11" d="M55.006,48.759,39.842,44.136H26.056S6.592,48.621,4.236,52.951L4,49.65C4,45.081,26.056,40,26.056,40H39.842l15.164,4.624c3.837,1.554,6.893,3.324,6.893,5.026l-.238,3.335C60.9,51.537,58.244,50.07,55.006,48.759Z" transform="translate(0.378 14.384)" fill="#6e03be"/>
    <path id="Path_12" data-name="Path 12" d="M20.893,17H44.328V33.8a8.27,8.27,0,0,1-2.976,6.354L34.868,43.71a6.975,6.975,0,0,1-3.358.86H26.816a6.98,6.98,0,0,1-3.359-.861l-6.482-3.552A8.275,8.275,0,0,1,14,33.8V22.514Z" transform="translate(4.164 5.678)" fill="#fce0b9"/>
    <path id="Path_13" data-name="Path 13" d="M21.189,36.551a6.975,6.975,0,0,0,3.358.86h4.694a6.98,6.98,0,0,0,3.359-.861l1.186-.65v8.4A9.749,9.749,0,0,1,20,44.3V35.9Z" transform="translate(6.434 12.837)" fill="#fce0b9"/>
    <path id="Path_14" data-name="Path 14" d="M20,35.9l1.188.651a6.975,6.975,0,0,0,3.358.86H29.24A6.98,6.98,0,0,0,32.6,36.55l1.186-.65v8.4c-.218.218-.445.419-.677.612L20,36.427Z" transform="translate(6.435 12.837)" fill="#f5cba1"/>
    <path id="Path_15" data-name="Path 15" d="M27.378,25A1.379,1.379,0,0,0,26,26.378V41.542h.968a6.98,6.98,0,0,0,3.359-.861l6.482-3.552a8.271,8.271,0,0,0,2.976-6.354V25Z" transform="translate(8.706 8.706)" fill="#f5cba1"/>
    <g id="Group_1" data-name="Group 1" transform="translate(38.842 37.842)">
      <path id="Path_16" data-name="Path 16" d="M29,28V58.328H48.3V34.893a2.757,2.757,0,1,1,5.514,0V58.328h19.3V28Z" transform="translate(-29 -28)" fill="#383838"/>
      <path id="Path_17" data-name="Path 17" d="M45.757,31A2.756,2.756,0,0,0,43,33.757V66.842h5.514V33.757A2.756,2.756,0,0,0,45.757,31Z" transform="translate(-23.701 -26.864)" fill="#383838"/>
      <path id="Path_18" data-name="Path 18" d="M36,57v5.514H60.814V57Z" transform="translate(-26.35 -17.023)" fill="#383838"/>
    </g>
    <path id="Path_19" data-name="Path 19" d="M25.514,17.65H20v2.757h5.514a9.65,9.65,0,0,0,9.65-9.65V8a9.65,9.65,0,0,1-9.65,9.65Z" transform="translate(6.435 2.271)" fill="#3d2012"/>
    <path id="Path_20" data-name="Path 20" d="M32.271,17.65H30.747A9.611,9.611,0,0,1,24,20.407h8.271a9.65,9.65,0,0,0,9.65-9.65V8a9.65,9.65,0,0,1-9.65,9.65Z" transform="translate(7.949 2.271)" fill="#4d2817"/>
    <path id="Path_21" data-name="Path 21" d="M42.407,16.708a9.6,9.6,0,0,1-4.136.941H36.747A9.611,9.611,0,0,1,30,20.407h8.271a9.678,9.678,0,0,0,9.65-9.65V8A9.639,9.639,0,0,1,42.407,16.708Z" transform="translate(10.22 2.271)" fill="#3d2012"/>
    <path id="Path_22" data-name="Path 22" d="M10,57.757,23.785,55h8.271a4.136,4.136,0,0,1,4.136,4.136v4.136H10Z" transform="translate(2.65 20.062)" fill="#fce0b9"/>
    <path id="Path_23" data-name="Path 23" d="M41,31.394V58.328h2.757V34.893a2.757,2.757,0,1,1,5.514,0V58.328h2.757V31.394c0-1.875-2.469-3.394-5.514-3.394S41,29.519,41,31.394Z" transform="translate(14.384 9.842)" fill="#262626"/>
    <path id="Path_24" data-name="Path 24" d="M36,59H60.814v2.757H36Z" transform="translate(12.492 21.576)" fill="#262626"/>
    <path id="Path_25" data-name="Path 25" d="M20.663,27.076a2.412,2.412,0,1,1,2.413-2.412A2.412,2.412,0,0,1,20.663,27.076Zm0-2.757a.345.345,0,0,0-.345.345c0,.379.689.379.689,0a.345.345,0,0,0-.345-.345Z" transform="translate(5.772 7.664)"/>
    <path id="Path_26" data-name="Path 26" d="M30.663,27.076a2.412,2.412,0,1,1,2.413-2.412A2.412,2.412,0,0,1,30.663,27.076Zm0-2.757a.345.345,0,0,0-.345.345c0,.379.689.379.689,0a.345.345,0,0,0-.345-.345Z" transform="translate(9.557 7.664)"/>
    <path id="Path_27" data-name="Path 27" d="M82.955,36.463H56.763V32.328a6.861,6.861,0,0,0-2.757-5.478V22.565a11.026,11.026,0,0,0,5.514-9.537V8.893a1.379,1.379,0,0,0-1.378-1.378H49.677C48.869,4.593,45.434,2,38.842,2H22.3a9.65,9.65,0,0,0-9.65,9.65V26.01a6.9,6.9,0,0,0-4.136,6.318v5.514a6.906,6.906,0,0,0,5.514,6.753V56.457C8.236,58.488,3,61.125,3,64.034v19.3a1.379,1.379,0,0,0,1.378,1.378H73.305a1.379,1.379,0,0,0,1.378-1.378V77.819a1.379,1.379,0,0,0-1.378-1.378H65.034V69.548H82.955a1.379,1.379,0,0,0,1.378-1.378V37.842a1.379,1.379,0,0,0-1.378-1.379Zm-33.085,0V28.192a4.141,4.141,0,0,1,4.136,4.136v4.136ZM27.814,51a8.372,8.372,0,0,0,3.168.63h4.692a8.277,8.277,0,0,0,1.789-.207v6.074a8.342,8.342,0,0,1-9.65-.948ZM38.842,36.463a1.379,1.379,0,0,0-1.378,1.378V48.561a5.562,5.562,0,0,1-1.789.309H30.981a5.635,5.635,0,0,1-2.7-.689l-6.361-3.486a6.872,6.872,0,0,1-2.382-5.212V28.192a1.339,1.339,0,0,0,.7-.216l.012.021,6.565-3.94h20.3V36.463Zm9.65-26.192v2.757A8.28,8.28,0,0,1,40.22,21.3h-1a11,11,0,0,0,3.758-8.271V10.271ZM40.22,13.028A8.28,8.28,0,0,1,31.949,21.3H27.814V18.542a8.28,8.28,0,0,1,8.271-8.271H40.22ZM51.249,25.574a6.886,6.886,0,0,0-1.378-.139V23.961a10.826,10.826,0,0,0,1.378-.267Zm5.514-12.546A8.28,8.28,0,0,1,48.492,21.3h-1a11,11,0,0,0,3.758-8.271V10.271h5.515ZM22.3,7.514a6.925,6.925,0,0,1,5.514-2.757H38.842c4.195,0,6.825,1.245,7.814,2.757H36.085A11.041,11.041,0,0,0,25.056,18.542V21.9l-4.136,2.481V11.649A6.931,6.931,0,0,1,22.3,7.514ZM15.407,11.65A6.89,6.89,0,0,1,20.922,4.9a9.53,9.53,0,0,0-.829.962,9.705,9.705,0,0,0-1.93,5.79V25.434H15.407ZM11.271,37.842V32.328a4.141,4.141,0,0,1,4.136-4.136h1.378v11.29a9.667,9.667,0,0,0,.341,2.5H15.407a4.141,4.141,0,0,1-4.136-4.136Zm5.514,6.893h1.566a9.672,9.672,0,0,0,1.906,2.16,1.271,1.271,0,0,0,.221.15l4.578,2.509v3.737c-2.284.545-5.25,1.311-8.271,2.254ZM5.757,64.034c0-1.048,3.342-2.809,8.271-4.6v16.7l-1.649.331.542,2.7,1.107-.222v3H5.757ZM37.463,81.955H16.785V78.4l9.786-1.957h8.135A2.76,2.76,0,0,1,37.463,79.2Zm9.65-4.136v4.136H40.22V79.2a5.52,5.52,0,0,0-5.514-5.514H26.435a1.275,1.275,0,0,0-.27.028l-9.38,1.875v-17.1c2.536-.829,5.35-1.635,8.271-2.353v1.009a1.375,1.375,0,0,0,.4.975,10.994,10.994,0,0,0,12,2.433V68.17a1.379,1.379,0,0,0,1.378,1.378H56.763v6.893H48.492a1.379,1.379,0,0,0-1.378,1.378Zm24.814,4.136H49.87V79.2H71.927ZM59.52,76.441V44.734a1.379,1.379,0,0,1,2.757,0V76.441Zm22.057-9.65H65.034V44.734a4.136,4.136,0,0,0-8.271,0V66.791H40.22V39.22H81.576Z"/>
  </g>
</svg>
